<?xml version="1.0" encoding="UTF-8" standalone="no"?>
<!DOCTYPE svg PUBLIC "-//W3C//DTD SVG 20010904//EN"
              "http://www.w3.org/TR/2001/REC-SVG-20010904/DTD/svg10.dtd">

<svg xmlns="http://www.w3.org/2000/svg"
     width="135.486mm" height="135.486mm"
     viewBox="0 0 512 512">
  <path id="Selection #4"
        fill="black" fill-rule="evenodd" stroke="black" stroke-width="1"
        d="M 143.43,153.50
           C 143.43,153.50 143.43,187.32 143.43,187.32
             143.43,187.32 160.37,187.32 160.37,187.32
             160.37,187.32 160.37,170.41 160.37,170.41
             160.37,170.41 212.33,170.41 212.33,170.41
             212.33,170.41 212.33,348.55 212.33,348.55
             212.33,348.55 196.10,328.26 196.10,328.26
             193.18,324.39 184.22,312.18 180.61,310.24
             178.49,309.11 176.25,309.13 173.93,309.10
             171.22,309.05 165.69,308.54 164.55,311.70
             162.71,316.83 174.75,329.78 177.97,333.89
             177.97,333.89 198.10,359.83 198.10,359.83
             200.82,363.22 205.16,369.57 209.05,371.27
             212.60,372.81 225.81,372.23 230.41,372.23
             230.41,372.23 230.41,164.77 230.41,164.77
             230.39,154.02 230.10,153.52 220.24,153.50
             220.24,153.50 143.43,153.50 143.43,153.50 Z
           M 247.35,153.50
           C 247.35,153.50 247.35,372.23 247.35,372.23
             252.06,372.23 265.18,372.93 268.80,371.08
             273.08,368.88 281.95,356.34 285.36,351.93
             285.36,351.93 298.58,335.02 298.58,335.02
             300.02,333.19 302.46,329.43 305.05,329.43
             307.45,329.43 309.61,332.24 310.99,333.90
             310.99,333.90 324.16,350.81 324.16,350.81
             328.07,355.73 337.08,369.32 342.28,371.40
             345.55,372.70 358.31,372.23 362.57,372.23
             362.57,372.23 362.57,153.50 362.57,153.50
             362.57,153.50 328.68,153.50 328.68,153.50
             328.68,153.50 328.68,170.41 328.68,170.41
             328.68,170.41 345.63,170.41 345.63,170.41
             345.63,170.41 345.63,349.68 345.63,349.68
             345.63,349.68 324.64,322.62 324.64,322.62
             322.19,319.48 317.00,312.01 313.81,310.24
             311.22,308.81 306.78,309.06 303.83,309.09
             293.36,309.23 292.81,313.85 286.59,321.49
             286.59,321.49 264.30,349.68 264.30,349.68
             264.30,349.68 264.30,153.50 264.30,153.50
             264.30,153.50 247.35,153.50 247.35,153.50 Z
           M 242.00,55.21
           C 222.64,58.17 211.16,59.13 192.00,65.51
             142.18,82.13 98.24,121.23 76.31,169.00
             46.82,233.22 50.86,308.75 90.35,368.00
             104.94,389.88 122.50,407.34 144.00,422.41
             159.28,433.12 178.16,442.23 196.00,447.72
             211.49,452.48 231.80,456.81 248.00,457.00
             281.40,457.39 316.33,451.82 346.00,435.56
             361.44,427.10 374.83,418.72 388.00,406.83
             434.74,364.62 455.72,310.14 455.00,248.00
             454.79,230.62 450.49,209.48 445.00,193.00
             422.76,126.27 371.44,77.66 303.00,60.63
             291.79,57.84 273.45,55.02 262.00,55.21
             262.00,55.21 242.00,55.21 242.00,55.21 Z" />
</svg>
